<svg width="204" height="60" viewBox="0 0 204 60" fill="none" xmlns="http://www.w3.org/2000/svg">
<rect x="1" y="1" width="202" height="58" rx="29" stroke="url(#paint0_linear_11_36)" stroke-width="2"/>
<path d="M76.26 36V33.48H68.72V30.04H74.42V27.56H68.72V24.52H76.26V22H65.68V36H76.26ZM80.3631 36L81.1631 34.82C82.0031 33.6 82.2631 32.8 82.2631 31.76H83.3231C83.3031 32.84 83.3831 33.94 84.0431 34.9L84.8031 36H88.2831L84.3431 30.84L88.0031 26H84.9031L84.3031 26.82C83.4231 28.04 83.2231 28.88 83.2231 29.96H82.1631C82.1831 28.86 82.1031 27.7 81.4831 26.82L80.9031 26H77.4631L81.1231 30.8L77.3031 36H80.3631ZM92.5364 39.9V38.04C92.5364 35.66 91.9764 34.72 91.4764 33.94H92.6764C93.1164 34.96 93.9364 36.3 95.9964 36.3C98.4364 36.3 100.116 34.16 100.116 31C100.116 27.84 98.4364 25.68 95.9964 25.68C93.8764 25.68 93.1364 27.04 92.6364 28.04H91.4364C91.8364 27.46 92.2764 26.7 92.2764 26H89.6964V39.9H92.5364ZM94.7964 34.16C93.3764 34.16 92.4164 33.12 92.4164 31C92.4164 28.88 93.3964 27.84 94.7964 27.84C96.1164 27.84 97.1364 28.66 97.1364 31C97.1364 33.34 96.1164 34.16 94.7964 34.16ZM105.075 36V22H102.235V36H105.075ZM112.421 36.32C115.481 36.32 117.681 34.26 117.681 31C117.681 27.8 115.481 25.7 112.421 25.7C109.361 25.7 107.161 27.8 107.161 31C107.161 34.08 109.361 36.32 112.421 36.32ZM112.421 34.06C111.061 34.06 110.121 33.1 110.121 31.04C110.121 28.98 111.061 27.94 112.421 27.94C113.781 27.94 114.721 28.98 114.721 31.04C114.721 33.1 113.781 34.06 112.421 34.06ZM122.595 36V32.16C122.595 29.46 123.495 28.68 125.535 28.68C125.875 28.68 126.235 28.7 126.635 28.74V25.82C126.475 25.8 126.335 25.8 126.035 25.8C123.915 25.8 123.095 26.98 122.655 29.04H121.455C121.915 28.28 122.315 27.04 122.315 26H119.755V36H122.595ZM132.573 36.32C135.613 36.32 136.873 34.68 137.433 33.4L134.893 32.42C134.473 33.36 133.853 34.16 132.573 34.16C131.353 34.16 130.413 33.44 130.333 31.68H137.393C137.673 28.34 135.913 25.7 132.553 25.7C129.653 25.7 127.493 27.84 127.493 30.98C127.493 34.26 129.493 36.32 132.573 36.32ZM130.433 29.68C130.633 28.42 131.413 27.74 132.553 27.74C133.753 27.74 134.473 28.44 134.593 29.68H130.433Z" fill="white"/>
<defs>
<linearGradient id="paint0_linear_11_36" x1="2" y1="2" x2="204.076" y2="10.9099" gradientUnits="userSpaceOnUse">
<stop stop-color="#73E0A9"/>
<stop offset="1" stop-color="#5B68DF"/>
</linearGradient>
</defs>
</svg>
