<svg width="106" height="32" viewBox="0 0 106 32" fill="none" xmlns="http://www.w3.org/2000/svg">
<path d="M34.276 21L30.566 11.2H27.808L24.07 21H26.352L27.164 18.704H31.14L31.924 21H34.276ZM28.522 14.826C28.76 14.154 28.774 13.426 28.788 12.39H29.544C29.558 13.426 29.586 14.154 29.81 14.812L30.538 16.94H27.78L28.522 14.826ZM38.5096 21.224C40.1616 21.224 41.4356 20.328 41.9676 18.984L40.0916 18.312C39.7836 19.208 39.2796 19.642 38.4676 19.642C37.5436 19.642 36.7596 18.928 36.7596 17.486C36.7596 16.044 37.5156 15.358 38.4536 15.358C39.1816 15.358 39.7416 15.778 40.0216 16.576L41.8556 15.89C41.3936 14.7 40.2036 13.79 38.5236 13.79C36.4096 13.79 34.7576 15.232 34.7576 17.486C34.7576 19.74 36.3536 21.224 38.5096 21.224ZM46.494 21.224C48.146 21.224 49.42 20.328 49.952 18.984L48.076 18.312C47.768 19.208 47.264 19.642 46.452 19.642C45.528 19.642 44.744 18.928 44.744 17.486C44.744 16.044 45.5 15.358 46.438 15.358C47.166 15.358 47.726 15.778 48.006 16.576L49.84 15.89C49.378 14.7 48.188 13.79 46.508 13.79C44.394 13.79 42.742 15.232 42.742 17.486C42.742 19.74 44.338 21.224 46.494 21.224ZM54.4083 21.224C56.5503 21.224 58.0903 19.782 58.0903 17.5C58.0903 15.26 56.5503 13.79 54.4083 13.79C52.2663 13.79 50.7263 15.26 50.7263 17.5C50.7263 19.656 52.2663 21.224 54.4083 21.224ZM54.4083 19.642C53.4563 19.642 52.7983 18.97 52.7983 17.528C52.7983 16.086 53.4563 15.358 54.4083 15.358C55.3603 15.358 56.0183 16.086 56.0183 17.528C56.0183 18.97 55.3603 19.642 54.4083 19.642ZM61.6422 21.224C62.8042 21.224 63.5182 20.384 63.8542 19.39H64.7082C64.3302 19.936 64.0502 20.524 64.0362 21H65.8842V14H63.8962V17.458C63.8962 18.62 63.5182 19.572 62.4962 19.572C61.8522 19.572 61.4462 19.194 61.4462 18.256V14H59.4582V18.718C59.4582 20.244 60.3122 21.224 61.6422 21.224ZM69.8017 21V17.682C69.8017 16.94 69.8157 15.428 71.2017 15.428C71.8877 15.428 72.3217 15.82 72.3217 16.744V21H74.3097V16.366C74.3097 14.812 73.4697 13.79 71.9297 13.79C70.8097 13.79 70.1097 14.616 69.7877 15.61H68.9197C69.2977 15.064 69.5917 14.462 69.6057 14H67.8137V21H69.8017ZM80.9972 21V19.418H79.4852C79.0512 19.418 78.8692 19.222 78.8692 18.802V15.512H80.6892V14H78.8692V11.802H76.8812V14H75.4112V15.512H76.8812V19.166C76.8812 20.258 77.5252 21 78.6592 21H80.9972Z" fill="white"/>
<rect x="0.5" y="0.5" width="105" height="31" rx="15.5" stroke="url(#paint0_linear_148_276)"/>
<defs>
<linearGradient id="paint0_linear_148_276" x1="0" y1="0" x2="107.129" y2="4.38107" gradientUnits="userSpaceOnUse">
<stop stop-color="#73E0A9"/>
<stop offset="1" stop-color="#5B68DF"/>
</linearGradient>
</defs>
</svg>
